<svg width="59" height="21" viewBox="0 0 59 21" fill="none" xmlns="http://www.w3.org/2000/svg">
<path d="M1.02733 20L6.42433 5.3H8.71333L14.0893 20H11.8633L7.55833 7.82L3.21133 20H1.02733ZM3.46333 16.367L4.05133 14.687H10.9603L11.5273 16.367H3.46333ZM21.2448 20.252C20.6848 20.252 20.1668 20.175 19.6908 20.021C19.2288 19.867 18.8158 19.65 18.4518 19.37C18.1018 19.09 17.8078 18.761 17.5698 18.383L17.3598 20H15.4698V4.88H17.5698V11.18C17.9058 10.676 18.3748 10.235 18.9768 9.857C19.5788 9.479 20.3418 9.29 21.2658 9.29C22.2738 9.29 23.1628 9.528 23.9328 10.004C24.7028 10.48 25.3048 11.131 25.7388 11.957C26.1728 12.783 26.3898 13.728 26.3898 14.792C26.3898 15.842 26.1728 16.78 25.7388 17.606C25.3048 18.432 24.7028 19.083 23.9328 19.559C23.1628 20.021 22.2668 20.252 21.2448 20.252ZM20.9088 18.425C21.5668 18.425 22.1478 18.271 22.6518 17.963C23.1558 17.655 23.5478 17.228 23.8278 16.682C24.1078 16.136 24.2478 15.499 24.2478 14.771C24.2478 14.043 24.1078 13.406 23.8278 12.86C23.5478 12.314 23.1558 11.887 22.6518 11.579C22.1478 11.271 21.5668 11.117 20.9088 11.117C20.2508 11.117 19.6698 11.271 19.1658 11.579C18.6618 11.887 18.2698 12.314 17.9898 12.86C17.7098 13.406 17.5698 14.043 17.5698 14.771C17.5698 15.499 17.7098 16.136 17.9898 16.682C18.2698 17.228 18.6618 17.655 19.1658 17.963C19.6698 18.271 20.2508 18.425 20.9088 18.425ZM33.0203 20.252C32.0263 20.252 31.1303 20.028 30.3323 19.58C29.5483 19.118 28.9253 18.474 28.4633 17.648C28.0153 16.822 27.7913 15.863 27.7913 14.771C27.7913 13.665 28.0223 12.706 28.4843 11.894C28.9463 11.068 29.5763 10.431 30.3743 9.983C31.1723 9.521 32.0613 9.29 33.0413 9.29C34.0353 9.29 34.9243 9.521 35.7083 9.983C36.5063 10.431 37.1363 11.068 37.5983 11.894C38.0603 12.706 38.2913 13.665 38.2913 14.771C38.2913 15.863 38.0603 16.822 37.5983 17.648C37.1363 18.474 36.5063 19.118 35.7083 19.58C34.9103 20.028 34.0143 20.252 33.0203 20.252ZM33.0203 18.446C33.5803 18.446 34.0913 18.313 34.5533 18.047C35.0293 17.767 35.4143 17.354 35.7083 16.808C36.0023 16.262 36.1493 15.583 36.1493 14.771C36.1493 13.945 36.0023 13.266 35.7083 12.734C35.4283 12.188 35.0503 11.782 34.5743 11.516C34.1123 11.236 33.6013 11.096 33.0413 11.096C32.5093 11.096 31.9983 11.236 31.5083 11.516C31.0323 11.782 30.6473 12.188 30.3533 12.734C30.0733 13.266 29.9333 13.945 29.9333 14.771C29.9333 15.583 30.0733 16.262 30.3533 16.808C30.6473 17.354 31.0253 17.767 31.4873 18.047C31.9633 18.313 32.4743 18.446 33.0203 18.446ZM43.9541 20.252C43.1281 20.252 42.4071 20.084 41.7911 19.748C41.1891 19.412 40.7201 18.901 40.3841 18.215C40.0621 17.515 39.9011 16.654 39.9011 15.632V9.542H42.0011V15.422C42.0011 16.43 42.2111 17.193 42.6311 17.711C43.0651 18.215 43.6951 18.467 44.5211 18.467C45.0811 18.467 45.5781 18.334 46.0121 18.068C46.4601 17.788 46.8101 17.396 47.0621 16.892C47.3281 16.374 47.4611 15.744 47.4611 15.002V9.542H49.5611V20H47.6711L47.5451 18.173C47.2091 18.817 46.7261 19.328 46.0961 19.706C45.4801 20.07 44.7661 20.252 43.9541 20.252ZM56.1118 20C55.4398 20 54.8588 19.895 54.3688 19.685C53.8788 19.475 53.5008 19.125 53.2348 18.635C52.9688 18.145 52.8358 17.48 52.8358 16.64V11.306H51.0298V9.542H52.8358L53.0878 6.917H54.9358V9.542H57.9178V11.306H54.9358V16.661C54.9358 17.263 55.0618 17.676 55.3138 17.9C55.5658 18.11 55.9998 18.215 56.6158 18.215H57.7918V20H56.1118Z" fill="#181717"/>
</svg>
