<svg width="76" height="16" viewBox="0 0 76 16" fill="none" xmlns="http://www.w3.org/2000/svg">
<path d="M7.64383 15.252C6.18783 15.252 4.93483 14.937 3.88483 14.307C2.83483 13.663 2.02283 12.774 1.44883 11.64C0.874826 10.492 0.587826 9.162 0.587826 7.65C0.587826 6.152 0.874826 4.829 1.44883 3.681C2.02283 2.533 2.83483 1.644 3.88483 1.014C4.93483 0.37 6.18783 0.0479997 7.64383 0.0479997C9.36583 0.0479997 10.7588 0.460999 11.8228 1.287C12.9008 2.113 13.5868 3.275 13.8808 4.773H11.5708C11.3608 3.905 10.9268 3.212 10.2688 2.694C9.62483 2.176 8.74283 1.917 7.62283 1.917C6.62883 1.917 5.76083 2.148 5.01883 2.61C4.29083 3.072 3.73083 3.73 3.33883 4.584C2.94683 5.438 2.75083 6.46 2.75083 7.65C2.75083 8.84 2.94683 9.869 3.33883 10.737C3.73083 11.591 4.29083 12.249 5.01883 12.711C5.76083 13.159 6.62883 13.383 7.62283 13.383C8.74283 13.383 9.62483 13.138 10.2688 12.648C10.9268 12.144 11.3608 11.465 11.5708 10.611H13.8808C13.5868 12.067 12.9008 13.208 11.8228 14.034C10.7588 14.846 9.36583 15.252 7.64383 15.252ZM20.4666 15.252C19.4726 15.252 18.5766 15.028 17.7786 14.58C16.9946 14.118 16.3716 13.474 15.9096 12.648C15.4616 11.822 15.2376 10.863 15.2376 9.771C15.2376 8.665 15.4686 7.706 15.9306 6.894C16.3926 6.068 17.0226 5.431 17.8206 4.983C18.6186 4.521 19.5076 4.29 20.4876 4.29C21.4816 4.29 22.3706 4.521 23.1546 4.983C23.9526 5.431 24.5826 6.068 25.0446 6.894C25.5066 7.706 25.7376 8.665 25.7376 9.771C25.7376 10.863 25.5066 11.822 25.0446 12.648C24.5826 13.474 23.9526 14.118 23.1546 14.58C22.3566 15.028 21.4606 15.252 20.4666 15.252ZM20.4666 13.446C21.0266 13.446 21.5376 13.313 21.9996 13.047C22.4756 12.767 22.8606 12.354 23.1546 11.808C23.4486 11.262 23.5956 10.583 23.5956 9.771C23.5956 8.945 23.4486 8.266 23.1546 7.734C22.8746 7.188 22.4966 6.782 22.0206 6.516C21.5586 6.236 21.0476 6.096 20.4876 6.096C19.9556 6.096 19.4446 6.236 18.9546 6.516C18.4786 6.782 18.0936 7.188 17.7996 7.734C17.5196 8.266 17.3796 8.945 17.3796 9.771C17.3796 10.583 17.5196 11.262 17.7996 11.808C18.0936 12.354 18.4716 12.767 18.9336 13.047C19.4096 13.313 19.9206 13.446 20.4666 13.446ZM27.5574 15V4.542H29.4264L29.5734 6.348C29.9094 5.718 30.3854 5.221 31.0014 4.857C31.6174 4.479 32.3314 4.29 33.1434 4.29C33.9834 4.29 34.7044 4.458 35.3064 4.794C35.9084 5.13 36.3704 5.641 36.6924 6.327C37.0284 7.013 37.1964 7.874 37.1964 8.91V15H35.0964V9.12C35.0964 8.126 34.8794 7.37 34.4454 6.852C34.0254 6.334 33.4024 6.075 32.5764 6.075C32.0164 6.075 31.5124 6.215 31.0644 6.495C30.6304 6.761 30.2874 7.153 30.0354 7.671C29.7834 8.175 29.6574 8.798 29.6574 9.54V15H27.5574ZM43.5581 15C42.8861 15 42.3051 14.895 41.8151 14.685C41.3251 14.475 40.9471 14.125 40.6811 13.635C40.4151 13.145 40.2821 12.48 40.2821 11.64V6.306H38.4761V4.542H40.2821L40.5341 1.917H42.3821V4.542H45.3641V6.306H42.3821V11.661C42.3821 12.263 42.5081 12.676 42.7601 12.9C43.0121 13.11 43.4461 13.215 44.0621 13.215H45.2381V15H43.5581ZM50.5378 15.252C49.6558 15.252 48.9278 15.105 48.3538 14.811C47.7798 14.517 47.3528 14.132 47.0728 13.656C46.7928 13.166 46.6528 12.627 46.6528 12.039C46.6528 11.353 46.8348 10.765 47.1988 10.275C47.5628 9.785 48.0808 9.407 48.7528 9.141C49.4248 8.875 50.2368 8.742 51.1888 8.742H53.9398C53.9398 8.14 53.8418 7.643 53.6458 7.251C53.4638 6.845 53.1908 6.544 52.8268 6.348C52.4768 6.138 52.0358 6.033 51.5038 6.033C50.8738 6.033 50.3208 6.187 49.8448 6.495C49.3828 6.803 49.1028 7.258 49.0048 7.86H46.9048C46.9888 7.104 47.2408 6.46 47.6608 5.928C48.0948 5.396 48.6478 4.99 49.3198 4.71C50.0058 4.43 50.7338 4.29 51.5038 4.29C52.4838 4.29 53.3098 4.465 53.9818 4.815C54.6538 5.165 55.1648 5.655 55.5148 6.285C55.8648 6.915 56.0398 7.671 56.0398 8.553V15H54.2128L54.0448 13.215C53.9048 13.495 53.7228 13.761 53.4988 14.013C53.2888 14.265 53.0368 14.482 52.7428 14.664C52.4628 14.846 52.1338 14.986 51.7558 15.084C51.3918 15.196 50.9858 15.252 50.5378 15.252ZM50.9368 13.551C51.3848 13.551 51.7908 13.46 52.1548 13.278C52.5188 13.096 52.8268 12.851 53.0788 12.543C53.3448 12.221 53.5408 11.864 53.6668 11.472C53.8068 11.08 53.8838 10.674 53.8978 10.254V10.233H51.3988C50.7968 10.233 50.3068 10.303 49.9288 10.443C49.5508 10.583 49.2778 10.779 49.1098 11.031C48.9558 11.283 48.8788 11.577 48.8788 11.913C48.8788 12.249 48.9558 12.543 49.1098 12.795C49.2638 13.033 49.4948 13.222 49.8028 13.362C50.1248 13.488 50.5028 13.551 50.9368 13.551ZM62.9422 15.252C61.9202 15.252 61.0102 15.021 60.2122 14.559C59.4142 14.097 58.7842 13.453 58.3222 12.627C57.8742 11.801 57.6502 10.849 57.6502 9.771C57.6502 8.679 57.8742 7.727 58.3222 6.915C58.7842 6.089 59.4142 5.445 60.2122 4.983C61.0102 4.521 61.9202 4.29 62.9422 4.29C64.2302 4.29 65.3012 4.626 66.1552 5.298C67.0232 5.956 67.5762 6.845 67.8142 7.965H65.6302C65.4902 7.377 65.1682 6.915 64.6642 6.579C64.1742 6.243 63.5932 6.075 62.9212 6.075C62.3612 6.075 61.8432 6.215 61.3672 6.495C60.8912 6.775 60.5062 7.195 60.2122 7.755C59.9322 8.301 59.7922 8.973 59.7922 9.771C59.7922 10.359 59.8762 10.884 60.0442 11.346C60.2122 11.808 60.4362 12.2 60.7162 12.522C61.0102 12.83 61.3462 13.068 61.7242 13.236C62.1162 13.39 62.5152 13.467 62.9212 13.467C63.3692 13.467 63.7752 13.397 64.1392 13.257C64.5172 13.103 64.8322 12.886 65.0842 12.606C65.3502 12.312 65.5322 11.962 65.6302 11.556H67.8142C67.5762 12.662 67.0232 13.558 66.1552 14.244C65.2872 14.916 64.2162 15.252 62.9422 15.252ZM73.7218 15C73.0498 15 72.4688 14.895 71.9788 14.685C71.4888 14.475 71.1108 14.125 70.8448 13.635C70.5788 13.145 70.4458 12.48 70.4458 11.64V6.306H68.6398V4.542H70.4458L70.6978 1.917H72.5458V4.542H75.5278V6.306H72.5458V11.661C72.5458 12.263 72.6718 12.676 72.9238 12.9C73.1758 13.11 73.6098 13.215 74.2258 13.215H75.4018V15H73.7218Z" fill="#181717"/>
</svg>
