<svg width="102" height="21" viewBox="0 0 102 21" fill="none" xmlns="http://www.w3.org/2000/svg">
<path d="M0.225867 16V1.3H5.26587C6.42787 1.3 7.38687 1.496 8.14287 1.888C8.89887 2.266 9.45887 2.784 9.82287 3.442C10.1869 4.1 10.3689 4.849 10.3689 5.689C10.3689 6.487 10.1869 7.215 9.82287 7.873C9.47287 8.531 8.91987 9.063 8.16387 9.469C7.42187 9.861 6.45587 10.057 5.26587 10.057H2.32587V16H0.225867ZM2.32587 8.314H5.18187C6.27387 8.314 7.05087 8.076 7.51287 7.6C7.98887 7.124 8.22687 6.487 8.22687 5.689C8.22687 4.849 7.98887 4.198 7.51287 3.736C7.05087 3.274 6.27387 3.043 5.18187 3.043H2.32587V8.314ZM11.8986 16V0.879999H13.9986V16H11.8986ZM19.7385 16.252C18.8565 16.252 18.1285 16.105 17.5545 15.811C16.9805 15.517 16.5535 15.132 16.2735 14.656C15.9935 14.166 15.8535 13.627 15.8535 13.039C15.8535 12.353 16.0355 11.765 16.3995 11.275C16.7635 10.785 17.2815 10.407 17.9535 10.141C18.6255 9.875 19.4375 9.742 20.3895 9.742H23.1405C23.1405 9.14 23.0425 8.643 22.8465 8.251C22.6645 7.845 22.3915 7.544 22.0275 7.348C21.6775 7.138 21.2365 7.033 20.7045 7.033C20.0745 7.033 19.5215 7.187 19.0455 7.495C18.5835 7.803 18.3035 8.258 18.2055 8.86H16.1055C16.1895 8.104 16.4415 7.46 16.8615 6.928C17.2955 6.396 17.8485 5.99 18.5205 5.71C19.2065 5.43 19.9345 5.29 20.7045 5.29C21.6845 5.29 22.5105 5.465 23.1825 5.815C23.8545 6.165 24.3655 6.655 24.7155 7.285C25.0655 7.915 25.2405 8.671 25.2405 9.553V16H23.4135L23.2455 14.215C23.1055 14.495 22.9235 14.761 22.6995 15.013C22.4895 15.265 22.2375 15.482 21.9435 15.664C21.6635 15.846 21.3345 15.986 20.9565 16.084C20.5925 16.196 20.1865 16.252 19.7385 16.252ZM20.1375 14.551C20.5855 14.551 20.9915 14.46 21.3555 14.278C21.7195 14.096 22.0275 13.851 22.2795 13.543C22.5455 13.221 22.7415 12.864 22.8675 12.472C23.0075 12.08 23.0845 11.674 23.0985 11.254V11.233H20.5995C19.9975 11.233 19.5075 11.303 19.1295 11.443C18.7515 11.583 18.4785 11.779 18.3105 12.031C18.1565 12.283 18.0795 12.577 18.0795 12.913C18.0795 13.249 18.1565 13.543 18.3105 13.795C18.4645 14.033 18.6955 14.222 19.0035 14.362C19.3255 14.488 19.7035 14.551 20.1375 14.551ZM28.1188 20.62L30.7228 14.824H30.0928L25.9138 5.542H28.1818L31.5208 13.123L34.8598 5.542H37.0648L30.3238 20.62H28.1188ZM41.8546 20.872C40.9026 20.872 40.0556 20.746 39.3136 20.494C38.5856 20.256 38.0116 19.885 37.5916 19.381C37.1856 18.877 36.9826 18.261 36.9826 17.533C36.9826 17.155 37.0666 16.777 37.2346 16.399C37.4166 16.021 37.6966 15.657 38.0746 15.307C38.4526 14.957 38.9566 14.642 39.5866 14.362L40.7416 15.307C40.0556 15.573 39.5866 15.888 39.3346 16.252C39.0966 16.63 38.9776 16.987 38.9776 17.323C38.9776 17.743 39.1036 18.093 39.3556 18.373C39.6076 18.653 39.9506 18.863 40.3846 19.003C40.8186 19.143 41.3086 19.213 41.8546 19.213C42.4006 19.213 42.8696 19.136 43.2616 18.982C43.6676 18.828 43.9826 18.611 44.2066 18.331C44.4306 18.051 44.5426 17.722 44.5426 17.344C44.5426 16.91 44.3746 16.539 44.0386 16.231C43.7166 15.937 43.0866 15.762 42.1486 15.706C41.3506 15.65 40.6716 15.573 40.1116 15.475C39.5656 15.377 39.1036 15.258 38.7256 15.118C38.3476 14.978 38.0256 14.824 37.7596 14.656C37.5076 14.488 37.2836 14.313 37.0876 14.131V13.648L39.2086 11.485L40.8676 12.052L38.6206 14.194L39.0616 13.27C39.2156 13.368 39.3626 13.466 39.5026 13.564C39.6426 13.648 39.8316 13.725 40.0696 13.795C40.3076 13.851 40.6226 13.907 41.0146 13.963C41.4206 14.019 41.9456 14.075 42.5896 14.131C43.5276 14.201 44.2836 14.369 44.8576 14.635C45.4456 14.901 45.8726 15.258 46.1386 15.706C46.4046 16.14 46.5376 16.665 46.5376 17.281C46.5376 17.883 46.3696 18.457 46.0336 19.003C45.7116 19.549 45.2006 19.997 44.5006 20.347C43.8146 20.697 42.9326 20.872 41.8546 20.872ZM41.8546 12.766C40.9726 12.766 40.2166 12.605 39.5866 12.283C38.9706 11.947 38.4946 11.499 38.1586 10.939C37.8366 10.365 37.6756 9.728 37.6756 9.028C37.6756 8.328 37.8366 7.698 38.1586 7.138C38.4946 6.578 38.9706 6.13 39.5866 5.794C40.2166 5.458 40.9726 5.29 41.8546 5.29C42.7366 5.29 43.4856 5.458 44.1016 5.794C44.7316 6.13 45.2076 6.578 45.5296 7.138C45.8656 7.698 46.0336 8.328 46.0336 9.028C46.0336 9.728 45.8656 10.365 45.5296 10.939C45.2076 11.499 44.7316 11.947 44.1016 12.283C43.4856 12.605 42.7366 12.766 41.8546 12.766ZM41.8546 11.107C42.5266 11.107 43.0656 10.932 43.4716 10.582C43.8916 10.218 44.1016 9.7 44.1016 9.028C44.1016 8.37 43.8916 7.866 43.4716 7.516C43.0656 7.166 42.5266 6.991 41.8546 6.991C41.1826 6.991 40.6366 7.166 40.2166 7.516C39.7966 7.866 39.5866 8.37 39.5866 9.028C39.5866 9.7 39.7896 10.218 40.1956 10.582C40.6156 10.932 41.1686 11.107 41.8546 11.107ZM43.5556 7.18L43.0516 5.542H47.3776V6.97L43.5556 7.18ZM48.8766 16V5.542H50.7666L50.9346 7.537C51.1726 7.061 51.4736 6.662 51.8376 6.34C52.2156 6.004 52.6566 5.745 53.1606 5.563C53.6646 5.381 54.2316 5.29 54.8616 5.29V7.495H54.2316C53.7836 7.495 53.3566 7.551 52.9506 7.663C52.5586 7.775 52.2086 7.957 51.9006 8.209C51.6066 8.461 51.3756 8.804 51.2076 9.238C51.0536 9.672 50.9766 10.218 50.9766 10.876V16H48.8766ZM60.685 16.252C59.691 16.252 58.795 16.028 57.997 15.58C57.213 15.118 56.59 14.474 56.128 13.648C55.68 12.822 55.456 11.863 55.456 10.771C55.456 9.665 55.687 8.706 56.149 7.894C56.611 7.068 57.241 6.431 58.039 5.983C58.837 5.521 59.726 5.29 60.706 5.29C61.7 5.29 62.589 5.521 63.373 5.983C64.171 6.431 64.801 7.068 65.263 7.894C65.725 8.706 65.956 9.665 65.956 10.771C65.956 11.863 65.725 12.822 65.263 13.648C64.801 14.474 64.171 15.118 63.373 15.58C62.575 16.028 61.679 16.252 60.685 16.252ZM60.685 14.446C61.245 14.446 61.756 14.313 62.218 14.047C62.694 13.767 63.079 13.354 63.373 12.808C63.667 12.262 63.814 11.583 63.814 10.771C63.814 9.945 63.667 9.266 63.373 8.734C63.093 8.188 62.715 7.782 62.239 7.516C61.777 7.236 61.266 7.096 60.706 7.096C60.174 7.096 59.663 7.236 59.173 7.516C58.697 7.782 58.312 8.188 58.018 8.734C57.738 9.266 57.598 9.945 57.598 10.771C57.598 11.583 57.738 12.262 58.018 12.808C58.312 13.354 58.69 13.767 59.152 14.047C59.628 14.313 60.139 14.446 60.685 14.446ZM71.6188 16.252C70.7928 16.252 70.0718 16.084 69.4558 15.748C68.8538 15.412 68.3848 14.901 68.0488 14.215C67.7268 13.515 67.5658 12.654 67.5658 11.632V5.542H69.6658V11.422C69.6658 12.43 69.8758 13.193 70.2958 13.711C70.7298 14.215 71.3598 14.467 72.1858 14.467C72.7458 14.467 73.2428 14.334 73.6768 14.068C74.1248 13.788 74.4748 13.396 74.7268 12.892C74.9928 12.374 75.1258 11.744 75.1258 11.002V5.542H77.2258V16H75.3358L75.2098 14.173C74.8738 14.817 74.3908 15.328 73.7608 15.706C73.1448 16.07 72.4308 16.252 71.6188 16.252ZM79.4505 16V5.542H81.3195L81.4665 7.348C81.8025 6.718 82.2785 6.221 82.8945 5.857C83.5105 5.479 84.2245 5.29 85.0365 5.29C85.8765 5.29 86.5975 5.458 87.1995 5.794C87.8015 6.13 88.2635 6.641 88.5855 7.327C88.9215 8.013 89.0895 8.874 89.0895 9.91V16H86.9895V10.12C86.9895 9.126 86.7725 8.37 86.3385 7.852C85.9185 7.334 85.2955 7.075 84.4695 7.075C83.9095 7.075 83.4055 7.215 82.9575 7.495C82.5235 7.761 82.1805 8.153 81.9285 8.671C81.6765 9.175 81.5505 9.798 81.5505 10.54V16H79.4505ZM95.8502 16.252C94.8422 16.252 93.9462 16.014 93.1622 15.538C92.3922 15.062 91.7902 14.411 91.3562 13.585C90.9362 12.745 90.7262 11.8 90.7262 10.75C90.7262 9.7 90.9362 8.762 91.3562 7.936C91.7902 7.11 92.3992 6.466 93.1832 6.004C93.9672 5.528 94.8632 5.29 95.8712 5.29C96.6972 5.29 97.4252 5.458 98.0552 5.794C98.6992 6.116 99.1962 6.571 99.5462 7.159V0.879999H101.646V16H99.7562L99.5462 14.362C99.3222 14.684 99.0422 14.992 98.7062 15.286C98.3702 15.566 97.9642 15.797 97.4882 15.979C97.0262 16.161 96.4802 16.252 95.8502 16.252ZM96.1862 14.425C96.8442 14.425 97.4252 14.271 97.9292 13.963C98.4332 13.655 98.8252 13.228 99.1052 12.682C99.3852 12.136 99.5252 11.499 99.5252 10.771C99.5252 10.043 99.3852 9.406 99.1052 8.86C98.8252 8.314 98.4332 7.887 97.9292 7.579C97.4252 7.271 96.8442 7.117 96.1862 7.117C95.5422 7.117 94.9682 7.271 94.4642 7.579C93.9602 7.887 93.5682 8.314 93.2882 8.86C93.0082 9.406 92.8682 10.043 92.8682 10.771C92.8682 11.499 93.0082 12.136 93.2882 12.682C93.5682 13.228 93.9602 13.655 94.4642 13.963C94.9682 14.271 95.5422 14.425 96.1862 14.425Z" fill="#181717"/>
</svg>
