<svg width="49" height="17" viewBox="0 0 49 17" fill="none" xmlns="http://www.w3.org/2000/svg">
<path d="M4.60802 16L0.639018 1.3H2.88602L5.86802 13.543L9.29102 1.3H11.622L14.94 13.585L17.964 1.3H20.211L16.137 16H13.701L10.404 4.303L7.02302 16H4.60802ZM25.2855 16.252C24.2915 16.252 23.3955 16.028 22.5975 15.58C21.8135 15.118 21.1905 14.474 20.7285 13.648C20.2805 12.822 20.0565 11.863 20.0565 10.771C20.0565 9.665 20.2875 8.706 20.7495 7.894C21.2115 7.068 21.8415 6.431 22.6395 5.983C23.4375 5.521 24.3265 5.29 25.3065 5.29C26.3005 5.29 27.1895 5.521 27.9735 5.983C28.7715 6.431 29.4015 7.068 29.8635 7.894C30.3255 8.706 30.5565 9.665 30.5565 10.771C30.5565 11.863 30.3255 12.822 29.8635 13.648C29.4015 14.474 28.7715 15.118 27.9735 15.58C27.1755 16.028 26.2795 16.252 25.2855 16.252ZM25.2855 14.446C25.8455 14.446 26.3565 14.313 26.8185 14.047C27.2945 13.767 27.6795 13.354 27.9735 12.808C28.2675 12.262 28.4145 11.583 28.4145 10.771C28.4145 9.945 28.2675 9.266 27.9735 8.734C27.6935 8.188 27.3155 7.782 26.8395 7.516C26.3775 7.236 25.8665 7.096 25.3065 7.096C24.7745 7.096 24.2635 7.236 23.7735 7.516C23.2975 7.782 22.9125 8.188 22.6185 8.734C22.3385 9.266 22.1985 9.945 22.1985 10.771C22.1985 11.583 22.3385 12.262 22.6185 12.808C22.9125 13.354 23.2905 13.767 23.7525 14.047C24.2285 14.313 24.7395 14.446 25.2855 14.446ZM32.3763 16V5.542H34.2663L34.4343 7.537C34.6723 7.061 34.9733 6.662 35.3373 6.34C35.7153 6.004 36.1563 5.745 36.6603 5.563C37.1643 5.381 37.7313 5.29 38.3613 5.29V7.495H37.7313C37.2833 7.495 36.8563 7.551 36.4503 7.663C36.0583 7.775 35.7083 7.957 35.4003 8.209C35.1063 8.461 34.8753 8.804 34.7073 9.238C34.5533 9.672 34.4763 10.218 34.4763 10.876V16H32.3763ZM46.3193 16L41.4263 10.246L45.8363 5.542H48.3563L43.1273 11.044L43.1483 9.49L48.9653 16H46.3193ZM39.6623 16V0.879999H41.7623V16H39.6623Z" fill="#181717"/>
</svg>
